refGRF
version=1
nRows=24
nColumns=19
inDegrees=no
endheader
time	ground_force_r_vx	ground_force_r_vy	ground_force_r_vz	ground_force_l_vx	ground_force_l_vy	ground_force_l_vz	ground_force_r_px	ground_force_r_py	ground_force_r_pz	ground_force_l_px	ground_force_l_py	ground_force_l_pz	ground_torque_r_x	ground_torque_r_y	ground_torque_r_z	ground_torque_l_x	ground_torque_l_y	ground_torque_l_z
      1.13100000	      0.00003777	      0.00004343	      0.00000108	      0.00000000	      0.00000000	     -0.00000000	     -0.90399998	      0.00000000	      0.60100002	      2.70600000	      0.00000000	      0.60000000	      0.00000028	      0.00000039	     -0.00000000	     -0.00000000	     -0.00000000	      0.00000000
      1.13200000	      0.00004712	      0.00004506	      0.00000645	      0.00000000	      0.00000000	     -0.00000000	     -0.90399995	      0.00000000	      0.60100001	      2.70600000	      0.00000000	      0.60000000	      0.00000037	      0.00000042	      0.00000005	     -0.00000000	     -0.00000000	      0.00000000
      1.13300000	      0.00005038	      0.00004242	      0.00001011	      0.00000000	      0.00000000	     -0.00000000	     -0.90399993	      0.00000000	      0.60100001	      2.70600000	      0.00000000	      0.60000000	      0.00000040	      0.00000040	      0.00000008	     -0.00000000	     -0.00000000	      0.00000000
      1.13400000	      0.00004855	      0.00003665	      0.00001211	      0.00000000	      0.00000000	     -0.00000000	     -0.90399992	      0.00000000	      0.60100001	      2.70600000	      0.00000000	      0.60000000	      0.00000039	      0.00000035	      0.00000010	     -0.00000000	     -0.00000000	      0.00000000
      1.13500000	      0.00004288	      0.00002891	      0.00001262	      0.00000000	      0.00000000	     -0.00000000	     -0.90399992	      0.00000000	      0.60100000	      2.70600000	      0.00000000	      0.60000000	      0.00000035	      0.00000028	      0.00000011	     -0.00000000	     -0.00000000	      0.00000000
      1.13600000	      0.00003468	      0.00002030	      0.00001193	      0.00000000	      0.00000000	     -0.00000000	     -0.90399993	      0.00000000	      0.60100000	      2.70600000	      0.00000000	      0.60000000	      0.00000029	      0.00000020	      0.00000010	     -0.00000000	     -0.00000000	      0.00000000
      1.13700000	      0.00002521	      0.00001176	      0.00001035	     -0.00000000	      0.00000000	     -0.00000000	     -0.90399994	      0.00000000	      0.60100000	      2.70600000	      0.00000000	      0.60000000	      0.00000022	      0.00000012	      0.00000009	     -0.00000000	     -0.00000000	      0.00000000
      1.13800000	      0.00001556	      0.00000401	      0.00000820	     -0.00000000	     -0.00000000	      0.00000000	     -0.90399995	      0.00000000	      0.60100000	      2.70600000	      0.00000000	      0.60000000	      0.00000014	      0.00000005	      0.00000007	     -0.00000000	     -0.00000000	      0.00000000
      1.13900000	      0.00000661	     -0.00000243	      0.00000579	     -0.00000000	     -0.00000000	      0.00000000	     -0.90399997	      0.00000000	      0.60100000	      2.70600000	      0.00000000	      0.60000000	      0.00000007	     -0.00000001	      0.00000005	     -0.00000000	     -0.00000000	      0.00000000
      1.14000000	     -0.00000101	     -0.00000729	      0.00000340	     -0.00460345	      0.00892640	     -0.00031124	     -0.90399998	      0.00000000	      0.60100000	      2.70597476	      0.00000000	      0.59989190	      0.00000000	     -0.00000006	      0.00000003	      0.00021835	     -0.00038193	      0.00005862
      1.14100000	     -0.00000691	     -0.00001048	      0.00000121	     -0.08463559	      0.17034633	      0.01520365	     -0.90400000	      0.00000000	      0.60100000	      2.70572532	      0.00000000	      0.59882206	     -0.00000005	     -0.00000009	      0.00000001	      0.00146491	     -0.00244989	      0.00083901
      1.14200000	     -0.00001096	     -0.00001207	     -0.00000061	     -0.53858192	      1.00539210	      0.16707838	     -0.90400001	      0.00000000	      0.60100000	      2.70492230	      0.00000000	      0.59532274	     -0.00000008	     -0.00000011	     -0.00000000	      0.00169255	     -0.00232145	      0.00434795
      1.14300000	     -0.00001318	     -0.00001228	     -0.00000199	     -1.99287731	      3.36107218	      0.76044081	     -0.90400002	      0.00000000	      0.60100000	      2.70331517	      0.00000000	      0.58818845	     -0.00000010	     -0.00000011	     -0.00000002	     -0.00148066	      0.00498901	      0.01151163
      1.14400000	     -0.00001379	     -0.00001137	     -0.00000290	     -5.32159895	      8.31454913	      2.27752347	     -0.90400002	      0.00000000	      0.60100000	      2.70079899	      0.00000000	      0.57678774	     -0.00000011	     -0.00000011	     -0.00000002	     -0.00718921	      0.01926952	      0.02104200
      1.14500000	     -0.00001306	     -0.00000966	     -0.00000337	    -11.46452992	     17.26479400	      5.29731486	     -0.90400002	      0.00000000	      0.60100000	      2.69743370	      0.00000000	      0.56120100	     -0.00000011	     -0.00000009	     -0.00000003	     -0.01663024	      0.04265874	      0.03274171
      1.14600000	     -0.00001135	     -0.00000747	     -0.00000344	    -21.29666229	     31.95206843	     10.41782380	     -0.90400002	      0.00000000	      0.60100000	      2.69340345	      0.00000000	      0.54214207	     -0.00000009	     -0.00000007	     -0.00000003	     -0.03114146	      0.07672090	      0.04656475
      1.14700000	     -0.00000902	     -0.00000510	     -0.00000320	    -35.61395726	     54.32645427	     18.22998634	     -0.90400002	      0.00000000	      0.60100000	      2.68898384	      0.00000000	      0.52077127	     -0.00000008	     -0.00000005	     -0.00000003	     -0.05291077	      0.12442041	      0.06321812
      1.14800000	     -0.00000639	     -0.00000280	     -0.00000273	    -55.15226437	     86.22783318	     29.23615406	     -0.90400002	      0.00000000	      0.60100000	      2.68450176	      0.00000000	      0.49847508	     -0.00000006	     -0.00000003	     -0.00000002	     -0.08840585	      0.19613417	      0.08601498
      1.14900000	     -0.00000377	     -0.00000073	     -0.00000212	    -80.55524746	    128.98616090	     43.74765909	     -0.90400001	      0.00000000	      0.60100000	      2.68028263	      0.00000000	      0.47665213	     -0.00000003	     -0.00000001	     -0.00000002	     -0.14600615	      0.30494453	      0.11929493
      1.15000000	     -0.00000138	      0.00000095	     -0.00000146	   -112.27490037	    183.28871976	     61.87899540	     -0.90400001	      0.00000000	      0.60100000	      2.67659606	      0.00000000	      0.45654795	     -0.00000001	      0.00000001	     -0.00000001	     -0.23424665	      0.46393515	      0.16753727
      1.15100000	      0.00000062	      0.00000219	     -0.00000081	   -150.42818018	    249.29437258	     83.59063044	     -0.90400000	      0.00000000	      0.60100000	      2.67361555	      0.00000000	      0.43914867	      0.00000000	      0.00000002	     -0.00000001	     -0.36712494	      0.69706897	      0.23869523
      1.15200000	      0.00000214	      0.00000298	     -0.00000023	   -194.72595675	    326.70763525	    108.66571575	     -0.90400000	      0.00000000	      0.60100000	      2.67140533	      0.00000000	      0.42511971	      0.00000002	      0.00000003	     -0.00000000	     -0.56640989	      1.04454286	      0.34533677
      1.15300000	      0.00000315	      0.00000334	      0.00000025	   -244.48603367	    414.78050348	    136.61367178	     -0.90400000	      0.00000000	      0.60100000	      2.66993271	      0.00000000	      0.41479280	      0.00000002	      0.00000003	      0.00000000	     -0.85613497	      1.55335282	      0.50056121
      1.15400000	      0.00000367	      0.00000333	      0.00000060	   -298.52900994	    512.28065265	    166.53124351	     -0.90400000	      0.00000000	      0.60100000	      2.66909244	      0.00000000	      0.40819607	      0.00000003	      0.00000003	      0.00000000	     -1.24981497	      2.25573990	      0.71024636
